<svg xmlns="http://www.w3.org/2000/svg" xml:space="preserve" width="1500" height="1500" data-id="lg_LKRJRnQwm7po0pqb5H" data-version="1" viewBox="0 0 1500 1500"><path fill="#1e1e1e" stroke="transparent" d="M0 0h1500v1500H0z"/><g data-padding="20"><g transform="translate(-576.165 -589.044)scale(1.72788)"><rect width="587.522" height="164.98" x="219.407" y="650.134" fill="none" rx="0" ry="0" transform="matrix(.95 0 0 .95 280 78.97)"/><path fill="#d8ff75" d="M567.182 758.196q-3.61 21.917-3.61 35.787t1.112 24.547h-30.239q-4.712-22.05-4.712-47.433 0-4.294.275-12.901-11.789 3.467-14.42 15.95l-13.738-.826 4.997-24.14h92.236q-2.774 15.257-6.384 24.966l-14.003-.826q.551-2.223.551-4.437 0-5.415-3.325-8.046-3.335-2.641-8.74-2.641m128.032 59.232v1.102h-32.177q-.56-7.904-2.365-16.36-8.598 8.732-19.418 16.36h-32.31q-.978-5.681-.978-15.048 0-9.357 2.774-18.79 9.994-2.917 19.218-9.852 9.215-6.935 13.376-14.972-3.743-5.833-7.904-10.688h46.047q13.737 29.82 13.737 68.249m-37.03-25.386q-3.61-12.35-9.435-23.303-6.517 19.142-7.495 36.204 9.994-5.14 16.93-12.9m135.364 25.383v1.102h-32.176q-.55-7.904-2.356-16.36-8.597 8.732-19.418 16.36H707.28q-.969-5.681-.969-15.048 0-9.357 2.774-18.79 9.984-2.917 19.21-9.852t13.384-14.972q-3.743-5.833-7.904-10.688h46.047q13.728 29.82 13.728 68.248m-37.03-25.384q-3.61-12.35-9.435-23.303-6.517 19.142-7.486 36.204 9.985-5.14 16.92-12.9m77.671 15.807q6.517 1.53 12.483 1.53t9.5-2.708 5.206-9.357l16.644.55q-2.08 12.484-5.548 20.663H804.37q-2.632-17.746-2.632-36.755 0-19 1.938-32.595h39.948q-9.158 35.093-9.434 58.672m55.338-58.671h37.45v3.752q0 36.613-4.57 65.598H889.12q2.632-12.76 2.632-29.47t-2.223-39.88m140.77 68.248v1.102h-32.177q-.55-7.904-2.356-16.36-8.597 8.732-19.418 16.36h-32.319q-.969-5.681-.969-15.048 0-9.357 2.774-18.79 9.984-2.917 19.21-9.852t13.384-14.972q-3.743-5.833-7.904-10.688h46.047q13.728 29.82 13.728 68.249m-37.03-25.386q-3.602-12.35-9.435-23.303-6.517 19.142-7.486 36.204 9.984-5.14 16.92-12.9"/></g><path fill="transparent" stroke="transparent" stroke-width="1.792" d="M250 609.319h1000v281.362H250z"/></g></svg>